G04 #@! TF.GenerationSoftware,KiCad,Pcbnew,5.1.6-c6e7f7d~87~ubuntu20.04.1*
G04 #@! TF.CreationDate,2020-09-28T10:34:55-03:00*
G04 #@! TF.ProjectId,altana_original,616c7461-6e61-45f6-9f72-6967696e616c,rev?*
G04 #@! TF.SameCoordinates,Original*
G04 #@! TF.FileFunction,Legend,Top*
G04 #@! TF.FilePolarity,Positive*
%FSLAX46Y46*%
G04 Gerber Fmt 4.6, Leading zero omitted, Abs format (unit mm)*
G04 Created by KiCad (PCBNEW 5.1.6-c6e7f7d~87~ubuntu20.04.1) date 2020-09-28 10:34:55*
%MOMM*%
%LPD*%
G01*
G04 APERTURE LIST*
%ADD10C,0.200000*%
%ADD11C,0.150000*%
G04 APERTURE END LIST*
D10*
X80060857Y-27390714D02*
X80975142Y-27390714D01*
X79194142Y-31149857D02*
X79194142Y-29949857D01*
X79479857Y-29949857D01*
X79651285Y-30007000D01*
X79765571Y-30121285D01*
X79822714Y-30235571D01*
X79879857Y-30464142D01*
X79879857Y-30635571D01*
X79822714Y-30864142D01*
X79765571Y-30978428D01*
X79651285Y-31092714D01*
X79479857Y-31149857D01*
X79194142Y-31149857D01*
X80622714Y-29949857D02*
X80851285Y-29949857D01*
X80965571Y-30007000D01*
X81079857Y-30121285D01*
X81137000Y-30349857D01*
X81137000Y-30749857D01*
X81079857Y-30978428D01*
X80965571Y-31092714D01*
X80851285Y-31149857D01*
X80622714Y-31149857D01*
X80508428Y-31092714D01*
X80394142Y-30978428D01*
X80337000Y-30749857D01*
X80337000Y-30349857D01*
X80394142Y-30121285D01*
X80508428Y-30007000D01*
X80622714Y-29949857D01*
X80060857Y-42630714D02*
X80975142Y-42630714D01*
X67764142Y-38134857D02*
X67764142Y-36934857D01*
X68049857Y-36934857D01*
X68221285Y-36992000D01*
X68335571Y-37106285D01*
X68392714Y-37220571D01*
X68449857Y-37449142D01*
X68449857Y-37620571D01*
X68392714Y-37849142D01*
X68335571Y-37963428D01*
X68221285Y-38077714D01*
X68049857Y-38134857D01*
X67764142Y-38134857D01*
X69192714Y-36934857D02*
X69421285Y-36934857D01*
X69535571Y-36992000D01*
X69649857Y-37106285D01*
X69707000Y-37334857D01*
X69707000Y-37734857D01*
X69649857Y-37963428D01*
X69535571Y-38077714D01*
X69421285Y-38134857D01*
X69192714Y-38134857D01*
X69078428Y-38077714D01*
X68964142Y-37963428D01*
X68907000Y-37734857D01*
X68907000Y-37334857D01*
X68964142Y-37106285D01*
X69078428Y-36992000D01*
X69192714Y-36934857D01*
X67726000Y-31149857D02*
X67726000Y-29949857D01*
X68011714Y-29949857D01*
X68183142Y-30007000D01*
X68297428Y-30121285D01*
X68354571Y-30235571D01*
X68411714Y-30464142D01*
X68411714Y-30635571D01*
X68354571Y-30864142D01*
X68297428Y-30978428D01*
X68183142Y-31092714D01*
X68011714Y-31149857D01*
X67726000Y-31149857D01*
X68926000Y-31149857D02*
X68926000Y-29949857D01*
X79537000Y-41309857D02*
X79537000Y-40109857D01*
X79822714Y-40109857D01*
X79994142Y-40167000D01*
X80108428Y-40281285D01*
X80165571Y-40395571D01*
X80222714Y-40624142D01*
X80222714Y-40795571D01*
X80165571Y-41024142D01*
X80108428Y-41138428D01*
X79994142Y-41252714D01*
X79822714Y-41309857D01*
X79537000Y-41309857D01*
X80737000Y-41309857D02*
X80737000Y-40109857D01*
X81143428Y-34959857D02*
X80743428Y-34388428D01*
X80457714Y-34959857D02*
X80457714Y-33759857D01*
X80914857Y-33759857D01*
X81029142Y-33817000D01*
X81086285Y-33874142D01*
X81143428Y-33988428D01*
X81143428Y-34159857D01*
X81086285Y-34274142D01*
X81029142Y-34331285D01*
X80914857Y-34388428D01*
X80457714Y-34388428D01*
X68443428Y-34959857D02*
X68043428Y-34388428D01*
X67757714Y-34959857D02*
X67757714Y-33759857D01*
X68214857Y-33759857D01*
X68329142Y-33817000D01*
X68386285Y-33874142D01*
X68443428Y-33988428D01*
X68443428Y-34159857D01*
X68386285Y-34274142D01*
X68329142Y-34331285D01*
X68214857Y-34388428D01*
X67757714Y-34388428D01*
X77587428Y-42719571D02*
X77530285Y-42776714D01*
X77358857Y-42833857D01*
X77244571Y-42833857D01*
X77073142Y-42776714D01*
X76958857Y-42662428D01*
X76901714Y-42548142D01*
X76844571Y-42319571D01*
X76844571Y-42148142D01*
X76901714Y-41919571D01*
X76958857Y-41805285D01*
X77073142Y-41691000D01*
X77244571Y-41633857D01*
X77358857Y-41633857D01*
X77530285Y-41691000D01*
X77587428Y-41748142D01*
X77333428Y-28495571D02*
X77276285Y-28552714D01*
X77104857Y-28609857D01*
X76990571Y-28609857D01*
X76819142Y-28552714D01*
X76704857Y-28438428D01*
X76647714Y-28324142D01*
X76590571Y-28095571D01*
X76590571Y-27924142D01*
X76647714Y-27695571D01*
X76704857Y-27581285D01*
X76819142Y-27467000D01*
X76990571Y-27409857D01*
X77104857Y-27409857D01*
X77276285Y-27467000D01*
X77333428Y-27524142D01*
X67614857Y-42376714D02*
X68529142Y-42376714D01*
X68072000Y-42833857D02*
X68072000Y-41919571D01*
X68249857Y-28152714D02*
X69164142Y-28152714D01*
X68707000Y-28609857D02*
X68707000Y-27695571D01*
D11*
X81422000Y-28687000D02*
X81422000Y-42687000D01*
X67422000Y-28687000D02*
X81422000Y-28687000D01*
X67422000Y-42687000D02*
X67422000Y-28687000D01*
X81422000Y-42687000D02*
X67422000Y-42687000D01*
D10*
X74241200Y-42507000D02*
X74241200Y-44107000D01*
X70741200Y-42507000D02*
X74241200Y-42507000D01*
X70741200Y-44107000D02*
X70741200Y-42507000D01*
X74241200Y-44107000D02*
X70741200Y-44107000D01*
X71241840Y-44107000D02*
X71241840Y-42507000D01*
X74241200Y-43307000D02*
X74641200Y-43307000D01*
X70741200Y-43307000D02*
X70341200Y-43307000D01*
M02*
