G04 #@! TF.GenerationSoftware,KiCad,Pcbnew,5.1.6-c6e7f7d~87~ubuntu20.04.1*
G04 #@! TF.CreationDate,2020-09-28T10:34:55-03:00*
G04 #@! TF.ProjectId,altana_original,616c7461-6e61-45f6-9f72-6967696e616c,rev?*
G04 #@! TF.SameCoordinates,Original*
G04 #@! TF.FileFunction,Legend,Bot*
G04 #@! TF.FilePolarity,Positive*
%FSLAX46Y46*%
G04 Gerber Fmt 4.6, Leading zero omitted, Abs format (unit mm)*
G04 Created by KiCad (PCBNEW 5.1.6-c6e7f7d~87~ubuntu20.04.1) date 2020-09-28 10:34:55*
%MOMM*%
%LPD*%
G01*
G04 APERTURE LIST*
%ADD10C,0.200000*%
%ADD11C,0.150000*%
%ADD12C,0.300000*%
G04 APERTURE END LIST*
D10*
X69649857Y-38134857D02*
X69649857Y-36934857D01*
X69364142Y-36934857D01*
X69192714Y-36992000D01*
X69078428Y-37106285D01*
X69021285Y-37220571D01*
X68964142Y-37449142D01*
X68964142Y-37620571D01*
X69021285Y-37849142D01*
X69078428Y-37963428D01*
X69192714Y-38077714D01*
X69364142Y-38134857D01*
X69649857Y-38134857D01*
X68221285Y-36934857D02*
X67992714Y-36934857D01*
X67878428Y-36992000D01*
X67764142Y-37106285D01*
X67707000Y-37334857D01*
X67707000Y-37734857D01*
X67764142Y-37963428D01*
X67878428Y-38077714D01*
X67992714Y-38134857D01*
X68221285Y-38134857D01*
X68335571Y-38077714D01*
X68449857Y-37963428D01*
X68507000Y-37734857D01*
X68507000Y-37334857D01*
X68449857Y-37106285D01*
X68335571Y-36992000D01*
X68221285Y-36934857D01*
X68529142Y-42376714D02*
X67614857Y-42376714D01*
X68072000Y-42833857D02*
X68072000Y-41919571D01*
X80975142Y-42630714D02*
X80060857Y-42630714D01*
X80400571Y-34959857D02*
X80800571Y-34388428D01*
X81086285Y-34959857D02*
X81086285Y-33759857D01*
X80629142Y-33759857D01*
X80514857Y-33817000D01*
X80457714Y-33874142D01*
X80400571Y-33988428D01*
X80400571Y-34159857D01*
X80457714Y-34274142D01*
X80514857Y-34331285D01*
X80629142Y-34388428D01*
X81086285Y-34388428D01*
X67700571Y-34959857D02*
X68100571Y-34388428D01*
X68386285Y-34959857D02*
X68386285Y-33759857D01*
X67929142Y-33759857D01*
X67814857Y-33817000D01*
X67757714Y-33874142D01*
X67700571Y-33988428D01*
X67700571Y-34159857D01*
X67757714Y-34274142D01*
X67814857Y-34331285D01*
X67929142Y-34388428D01*
X68386285Y-34388428D01*
X69164142Y-28152714D02*
X68249857Y-28152714D01*
X68707000Y-28609857D02*
X68707000Y-27695571D01*
X76844571Y-42719571D02*
X76901714Y-42776714D01*
X77073142Y-42833857D01*
X77187428Y-42833857D01*
X77358857Y-42776714D01*
X77473142Y-42662428D01*
X77530285Y-42548142D01*
X77587428Y-42319571D01*
X77587428Y-42148142D01*
X77530285Y-41919571D01*
X77473142Y-41805285D01*
X77358857Y-41691000D01*
X77187428Y-41633857D01*
X77073142Y-41633857D01*
X76901714Y-41691000D01*
X76844571Y-41748142D01*
X81079857Y-31149857D02*
X81079857Y-29949857D01*
X80794142Y-29949857D01*
X80622714Y-30007000D01*
X80508428Y-30121285D01*
X80451285Y-30235571D01*
X80394142Y-30464142D01*
X80394142Y-30635571D01*
X80451285Y-30864142D01*
X80508428Y-30978428D01*
X80622714Y-31092714D01*
X80794142Y-31149857D01*
X81079857Y-31149857D01*
X79651285Y-29949857D02*
X79422714Y-29949857D01*
X79308428Y-30007000D01*
X79194142Y-30121285D01*
X79137000Y-30349857D01*
X79137000Y-30749857D01*
X79194142Y-30978428D01*
X79308428Y-31092714D01*
X79422714Y-31149857D01*
X79651285Y-31149857D01*
X79765571Y-31092714D01*
X79879857Y-30978428D01*
X79937000Y-30749857D01*
X79937000Y-30349857D01*
X79879857Y-30121285D01*
X79765571Y-30007000D01*
X79651285Y-29949857D01*
X80975142Y-27390714D02*
X80060857Y-27390714D01*
X68926000Y-31149857D02*
X68926000Y-29949857D01*
X68640285Y-29949857D01*
X68468857Y-30007000D01*
X68354571Y-30121285D01*
X68297428Y-30235571D01*
X68240285Y-30464142D01*
X68240285Y-30635571D01*
X68297428Y-30864142D01*
X68354571Y-30978428D01*
X68468857Y-31092714D01*
X68640285Y-31149857D01*
X68926000Y-31149857D01*
X67726000Y-31149857D02*
X67726000Y-29949857D01*
X80737000Y-41309857D02*
X80737000Y-40109857D01*
X80451285Y-40109857D01*
X80279857Y-40167000D01*
X80165571Y-40281285D01*
X80108428Y-40395571D01*
X80051285Y-40624142D01*
X80051285Y-40795571D01*
X80108428Y-41024142D01*
X80165571Y-41138428D01*
X80279857Y-41252714D01*
X80451285Y-41309857D01*
X80737000Y-41309857D01*
X79537000Y-41309857D02*
X79537000Y-40109857D01*
X76590571Y-28495571D02*
X76647714Y-28552714D01*
X76819142Y-28609857D01*
X76933428Y-28609857D01*
X77104857Y-28552714D01*
X77219142Y-28438428D01*
X77276285Y-28324142D01*
X77333428Y-28095571D01*
X77333428Y-27924142D01*
X77276285Y-27695571D01*
X77219142Y-27581285D01*
X77104857Y-27467000D01*
X76933428Y-27409857D01*
X76819142Y-27409857D01*
X76647714Y-27467000D01*
X76590571Y-27524142D01*
D11*
X81422000Y-42687000D02*
X67422000Y-42687000D01*
X81422000Y-28687000D02*
X81422000Y-42687000D01*
X67422000Y-28687000D02*
X81422000Y-28687000D01*
X67422000Y-42687000D02*
X67422000Y-28687000D01*
D12*
X69822000Y-41937000D02*
X69822000Y-42287000D01*
X69822000Y-42287000D02*
X78222001Y-42287000D01*
X74822000Y-38687000D02*
X69822000Y-38687000D01*
X80322000Y-36787000D02*
X77042000Y-36787000D01*
X80322000Y-40387000D02*
X80322000Y-39387000D01*
X80322000Y-36787000D02*
X80322000Y-37147000D01*
X80122000Y-37147000D02*
X80322000Y-37147000D01*
X80092000Y-39387000D02*
X80092000Y-37147000D01*
X80322000Y-39387000D02*
X80122000Y-39387000D01*
X70022000Y-41937000D02*
X69822000Y-41937000D01*
X70042000Y-39687000D02*
X70042000Y-41937000D01*
X69822000Y-39687000D02*
X70022000Y-39687000D01*
X69822000Y-38687000D02*
X69822000Y-39687000D01*
X77038318Y-36808471D02*
G75*
G02*
X74822000Y-38687000I-2151318J291471D01*
G01*
X80322000Y-40386999D02*
G75*
G02*
X78222001Y-42287000I-2000000J99999D01*
G01*
D10*
X74242000Y-43307000D02*
X74642000Y-43307000D01*
X70742000Y-43307000D02*
X70342000Y-43307000D01*
X71242000Y-44107000D02*
X71242000Y-42507000D01*
X70742000Y-44107000D02*
X74242000Y-44107000D01*
X74242000Y-44107000D02*
X74242000Y-42507000D01*
X74242000Y-42507000D02*
X70742000Y-42507000D01*
X70742000Y-42507000D02*
X70742000Y-44107000D01*
D12*
X70992000Y-32602000D02*
X70992000Y-31152000D01*
X70992000Y-31152000D02*
X73042000Y-31152000D01*
X73042000Y-31152000D02*
X73042000Y-32602000D01*
X73042000Y-32602000D02*
X70992000Y-32602000D01*
D10*
X72905904Y-43759380D02*
X72905904Y-42759380D01*
X72667809Y-42759380D01*
X72524952Y-42807000D01*
X72429714Y-42902238D01*
X72382095Y-42997476D01*
X72334476Y-43187952D01*
X72334476Y-43330809D01*
X72382095Y-43521285D01*
X72429714Y-43616523D01*
X72524952Y-43711761D01*
X72667809Y-43759380D01*
X72905904Y-43759380D01*
M02*
