M48
; DRILL file {KiCad 5.1.6-c6e7f7d~87~ubuntu20.04.1} date Mon Sep 28 10:35:04 2020
; FORMAT={-:-/ absolute / metric / decimal}
; #@! TF.CreationDate,2020-09-28T10:35:04-03:00
; #@! TF.GenerationSoftware,Kicad,Pcbnew,5.1.6-c6e7f7d~87~ubuntu20.04.1
FMAT,2
METRIC
T1C0.400
T2C0.800
T3C1.900
T4C3.000
T5C4.100
%
G90
G05
T1
X66.802Y-41.402
X68.707Y-33.782
X69.977Y-29.972
X70.612Y-31.877
X70.612Y-37.592
X71.247Y-38.862
X74.94Y-40.65
X75.692Y-39.497
X76.822Y-33.007
X76.962Y-42.037
X78.152Y-30.207
X78.152Y-33.782
X78.994Y-31.877
X79.756Y-39.751
X80.01Y-41.275
X80.137Y-31.242
X81.407Y-33.782
X82.042Y-29.972
T2
X66.802Y-35.687
X66.802Y-43.307
X66.802Y-31.877
X69.342Y-43.307
X75.692Y-43.307
X78.867Y-43.307
X82.042Y-28.067
X66.802Y-28.067
X82.042Y-40.767
X78.867Y-28.067
X82.042Y-35.687
X82.042Y-43.307
X66.802Y-38.862
X82.042Y-31.877
T3
X69.342Y-35.687
X79.502Y-35.687
T4
X71.882Y-40.767
X78.232Y-38.227
T5
X74.422Y-35.687
T0
M30
