G04 #@! TF.GenerationSoftware,KiCad,Pcbnew,5.1.6-c6e7f7d~87~ubuntu20.04.1*
G04 #@! TF.CreationDate,2020-09-28T10:34:55-03:00*
G04 #@! TF.ProjectId,altana_original,616c7461-6e61-45f6-9f72-6967696e616c,rev?*
G04 #@! TF.SameCoordinates,Original*
G04 #@! TF.FileFunction,Soldermask,Top*
G04 #@! TF.FilePolarity,Negative*
%FSLAX46Y46*%
G04 Gerber Fmt 4.6, Leading zero omitted, Abs format (unit mm)*
G04 Created by KiCad (PCBNEW 5.1.6-c6e7f7d~87~ubuntu20.04.1) date 2020-09-28 10:34:55*
%MOMM*%
%LPD*%
G01*
G04 APERTURE LIST*
%ADD10C,0.265000*%
G04 APERTURE END LIST*
D10*
G36*
X82319395Y-42392546D02*
G01*
X82492466Y-42464234D01*
X82492467Y-42464235D01*
X82648227Y-42568310D01*
X82780690Y-42700773D01*
X82833081Y-42779182D01*
X82884766Y-42856534D01*
X82956454Y-43029605D01*
X82993000Y-43213333D01*
X82993000Y-43400667D01*
X82956454Y-43584395D01*
X82884766Y-43757466D01*
X82865877Y-43785735D01*
X82780690Y-43913227D01*
X82648227Y-44045690D01*
X82569818Y-44098081D01*
X82492466Y-44149766D01*
X82319395Y-44221454D01*
X82135667Y-44258000D01*
X81948333Y-44258000D01*
X81764605Y-44221454D01*
X81591534Y-44149766D01*
X81514182Y-44098081D01*
X81435773Y-44045690D01*
X81303310Y-43913227D01*
X81218123Y-43785735D01*
X81199234Y-43757466D01*
X81127546Y-43584395D01*
X81091000Y-43400667D01*
X81091000Y-43213333D01*
X81127546Y-43029605D01*
X81199234Y-42856534D01*
X81250919Y-42779182D01*
X81303310Y-42700773D01*
X81435773Y-42568310D01*
X81591533Y-42464235D01*
X81591534Y-42464234D01*
X81764605Y-42392546D01*
X81948333Y-42356000D01*
X82135667Y-42356000D01*
X82319395Y-42392546D01*
G37*
G36*
X67079395Y-42392546D02*
G01*
X67252466Y-42464234D01*
X67252467Y-42464235D01*
X67408227Y-42568310D01*
X67540690Y-42700773D01*
X67593081Y-42779182D01*
X67644766Y-42856534D01*
X67716454Y-43029605D01*
X67753000Y-43213333D01*
X67753000Y-43400667D01*
X67716454Y-43584395D01*
X67644766Y-43757466D01*
X67625877Y-43785735D01*
X67540690Y-43913227D01*
X67408227Y-44045690D01*
X67329818Y-44098081D01*
X67252466Y-44149766D01*
X67079395Y-44221454D01*
X66895667Y-44258000D01*
X66708333Y-44258000D01*
X66524605Y-44221454D01*
X66351534Y-44149766D01*
X66274182Y-44098081D01*
X66195773Y-44045690D01*
X66063310Y-43913227D01*
X65978123Y-43785735D01*
X65959234Y-43757466D01*
X65887546Y-43584395D01*
X65851000Y-43400667D01*
X65851000Y-43213333D01*
X65887546Y-43029605D01*
X65959234Y-42856534D01*
X66010919Y-42779182D01*
X66063310Y-42700773D01*
X66195773Y-42568310D01*
X66351533Y-42464235D01*
X66351534Y-42464234D01*
X66524605Y-42392546D01*
X66708333Y-42356000D01*
X66895667Y-42356000D01*
X67079395Y-42392546D01*
G37*
G36*
X79144395Y-42392546D02*
G01*
X79317466Y-42464234D01*
X79317467Y-42464235D01*
X79473227Y-42568310D01*
X79605690Y-42700773D01*
X79658081Y-42779182D01*
X79709766Y-42856534D01*
X79781454Y-43029605D01*
X79818000Y-43213333D01*
X79818000Y-43400667D01*
X79781454Y-43584395D01*
X79709766Y-43757466D01*
X79690877Y-43785735D01*
X79605690Y-43913227D01*
X79473227Y-44045690D01*
X79394818Y-44098081D01*
X79317466Y-44149766D01*
X79144395Y-44221454D01*
X78960667Y-44258000D01*
X78773333Y-44258000D01*
X78589605Y-44221454D01*
X78416534Y-44149766D01*
X78339182Y-44098081D01*
X78260773Y-44045690D01*
X78128310Y-43913227D01*
X78043123Y-43785735D01*
X78024234Y-43757466D01*
X77952546Y-43584395D01*
X77916000Y-43400667D01*
X77916000Y-43213333D01*
X77952546Y-43029605D01*
X78024234Y-42856534D01*
X78075919Y-42779182D01*
X78128310Y-42700773D01*
X78260773Y-42568310D01*
X78416533Y-42464235D01*
X78416534Y-42464234D01*
X78589605Y-42392546D01*
X78773333Y-42356000D01*
X78960667Y-42356000D01*
X79144395Y-42392546D01*
G37*
G36*
X70093000Y-44058000D02*
G01*
X68591000Y-44058000D01*
X68591000Y-42556000D01*
X70093000Y-42556000D01*
X70093000Y-44058000D01*
G37*
G36*
X75827850Y-42568309D02*
G01*
X75911059Y-42584860D01*
X76047732Y-42641472D01*
X76170735Y-42723660D01*
X76275340Y-42828265D01*
X76357528Y-42951268D01*
X76414140Y-43087941D01*
X76443000Y-43233033D01*
X76443000Y-43380967D01*
X76414140Y-43526059D01*
X76357528Y-43662732D01*
X76275340Y-43785735D01*
X76170735Y-43890340D01*
X76047732Y-43972528D01*
X76047731Y-43972529D01*
X76047730Y-43972529D01*
X75911059Y-44029140D01*
X75765968Y-44058000D01*
X75618032Y-44058000D01*
X75472941Y-44029140D01*
X75336270Y-43972529D01*
X75336269Y-43972529D01*
X75336268Y-43972528D01*
X75213265Y-43890340D01*
X75108660Y-43785735D01*
X75026472Y-43662732D01*
X74969860Y-43526059D01*
X74941000Y-43380967D01*
X74941000Y-43233033D01*
X74969860Y-43087941D01*
X75026472Y-42951268D01*
X75108660Y-42828265D01*
X75213265Y-42723660D01*
X75336268Y-42641472D01*
X75472941Y-42584860D01*
X75556150Y-42568309D01*
X75618032Y-42556000D01*
X75765968Y-42556000D01*
X75827850Y-42568309D01*
G37*
G36*
X72184585Y-39245802D02*
G01*
X72334410Y-39275604D01*
X72616674Y-39392521D01*
X72870705Y-39562259D01*
X73086741Y-39778295D01*
X73256479Y-40032326D01*
X73373396Y-40314590D01*
X73433000Y-40614240D01*
X73433000Y-40919760D01*
X73373396Y-41219410D01*
X73256479Y-41501674D01*
X73086741Y-41755705D01*
X72870705Y-41971741D01*
X72616674Y-42141479D01*
X72334410Y-42258396D01*
X72184585Y-42288198D01*
X72034761Y-42318000D01*
X71729239Y-42318000D01*
X71579415Y-42288198D01*
X71429590Y-42258396D01*
X71147326Y-42141479D01*
X70893295Y-41971741D01*
X70677259Y-41755705D01*
X70507521Y-41501674D01*
X70390604Y-41219410D01*
X70331000Y-40919760D01*
X70331000Y-40614240D01*
X70390604Y-40314590D01*
X70507521Y-40032326D01*
X70677259Y-39778295D01*
X70893295Y-39562259D01*
X71147326Y-39392521D01*
X71429590Y-39275604D01*
X71579415Y-39245802D01*
X71729239Y-39216000D01*
X72034761Y-39216000D01*
X72184585Y-39245802D01*
G37*
G36*
X82319395Y-39852546D02*
G01*
X82492466Y-39924234D01*
X82492467Y-39924235D01*
X82648227Y-40028310D01*
X82780690Y-40160773D01*
X82780691Y-40160775D01*
X82884766Y-40316534D01*
X82956454Y-40489605D01*
X82993000Y-40673333D01*
X82993000Y-40860667D01*
X82956454Y-41044395D01*
X82884766Y-41217466D01*
X82883467Y-41219410D01*
X82780690Y-41373227D01*
X82648227Y-41505690D01*
X82569818Y-41558081D01*
X82492466Y-41609766D01*
X82319395Y-41681454D01*
X82135667Y-41718000D01*
X81948333Y-41718000D01*
X81764605Y-41681454D01*
X81591534Y-41609766D01*
X81514182Y-41558081D01*
X81435773Y-41505690D01*
X81303310Y-41373227D01*
X81200533Y-41219410D01*
X81199234Y-41217466D01*
X81127546Y-41044395D01*
X81091000Y-40860667D01*
X81091000Y-40673333D01*
X81127546Y-40489605D01*
X81199234Y-40316534D01*
X81303309Y-40160775D01*
X81303310Y-40160773D01*
X81435773Y-40028310D01*
X81591533Y-39924235D01*
X81591534Y-39924234D01*
X81764605Y-39852546D01*
X81948333Y-39816000D01*
X82135667Y-39816000D01*
X82319395Y-39852546D01*
G37*
G36*
X67079395Y-37947546D02*
G01*
X67252466Y-38019234D01*
X67252467Y-38019235D01*
X67408227Y-38123310D01*
X67540690Y-38255773D01*
X67540691Y-38255775D01*
X67644766Y-38411534D01*
X67716454Y-38584605D01*
X67753000Y-38768333D01*
X67753000Y-38955667D01*
X67716454Y-39139395D01*
X67644766Y-39312466D01*
X67644765Y-39312467D01*
X67540690Y-39468227D01*
X67408227Y-39600690D01*
X67407046Y-39601479D01*
X67252466Y-39704766D01*
X67079395Y-39776454D01*
X66895667Y-39813000D01*
X66708333Y-39813000D01*
X66524605Y-39776454D01*
X66351534Y-39704766D01*
X66196954Y-39601479D01*
X66195773Y-39600690D01*
X66063310Y-39468227D01*
X65959235Y-39312467D01*
X65959234Y-39312466D01*
X65887546Y-39139395D01*
X65851000Y-38955667D01*
X65851000Y-38768333D01*
X65887546Y-38584605D01*
X65959234Y-38411534D01*
X66063309Y-38255775D01*
X66063310Y-38255773D01*
X66195773Y-38123310D01*
X66351533Y-38019235D01*
X66351534Y-38019234D01*
X66524605Y-37947546D01*
X66708333Y-37911000D01*
X66895667Y-37911000D01*
X67079395Y-37947546D01*
G37*
G36*
X78534585Y-36705802D02*
G01*
X78684410Y-36735604D01*
X78966674Y-36852521D01*
X79220705Y-37022259D01*
X79436741Y-37238295D01*
X79606479Y-37492326D01*
X79723396Y-37774590D01*
X79783000Y-38074240D01*
X79783000Y-38379760D01*
X79723396Y-38679410D01*
X79606479Y-38961674D01*
X79436741Y-39215705D01*
X79220705Y-39431741D01*
X78966674Y-39601479D01*
X78684410Y-39718396D01*
X78534585Y-39748198D01*
X78384761Y-39778000D01*
X78079239Y-39778000D01*
X77929415Y-39748198D01*
X77779590Y-39718396D01*
X77497326Y-39601479D01*
X77243295Y-39431741D01*
X77027259Y-39215705D01*
X76857521Y-38961674D01*
X76740604Y-38679410D01*
X76681000Y-38379760D01*
X76681000Y-38074240D01*
X76740604Y-37774590D01*
X76857521Y-37492326D01*
X77027259Y-37238295D01*
X77243295Y-37022259D01*
X77497326Y-36852521D01*
X77779590Y-36735604D01*
X77929415Y-36705802D01*
X78079239Y-36676000D01*
X78384761Y-36676000D01*
X78534585Y-36705802D01*
G37*
G36*
X74899536Y-33639827D02*
G01*
X75034839Y-33666740D01*
X75417197Y-33825118D01*
X75761310Y-34055047D01*
X76053953Y-34347690D01*
X76283882Y-34691803D01*
X76442260Y-35074161D01*
X76469173Y-35209464D01*
X76523000Y-35480068D01*
X76523000Y-35893932D01*
X76474558Y-36137466D01*
X76442260Y-36299839D01*
X76283882Y-36682197D01*
X76053953Y-37026310D01*
X75761310Y-37318953D01*
X75417197Y-37548882D01*
X75034839Y-37707260D01*
X74899536Y-37734173D01*
X74628932Y-37788000D01*
X74215068Y-37788000D01*
X73944464Y-37734173D01*
X73809161Y-37707260D01*
X73426803Y-37548882D01*
X73082690Y-37318953D01*
X72790047Y-37026310D01*
X72560118Y-36682197D01*
X72401740Y-36299839D01*
X72369442Y-36137466D01*
X72321000Y-35893932D01*
X72321000Y-35480068D01*
X72374827Y-35209464D01*
X72401740Y-35074161D01*
X72560118Y-34691803D01*
X72790047Y-34347690D01*
X73082690Y-34055047D01*
X73426803Y-33825118D01*
X73809161Y-33666740D01*
X73944464Y-33639827D01*
X74215068Y-33586000D01*
X74628932Y-33586000D01*
X74899536Y-33639827D01*
G37*
G36*
X79629764Y-34691803D02*
G01*
X79793981Y-34724468D01*
X79976151Y-34799926D01*
X80140100Y-34909473D01*
X80279527Y-35048900D01*
X80389074Y-35212849D01*
X80464532Y-35395019D01*
X80503000Y-35588410D01*
X80503000Y-35785590D01*
X80464532Y-35978981D01*
X80389074Y-36161151D01*
X80279527Y-36325100D01*
X80140100Y-36464527D01*
X79976151Y-36574074D01*
X79793981Y-36649532D01*
X79600591Y-36688000D01*
X79403409Y-36688000D01*
X79210019Y-36649532D01*
X79027849Y-36574074D01*
X78863900Y-36464527D01*
X78724473Y-36325100D01*
X78614926Y-36161151D01*
X78539468Y-35978981D01*
X78501000Y-35785590D01*
X78501000Y-35588410D01*
X78539468Y-35395019D01*
X78614926Y-35212849D01*
X78724473Y-35048900D01*
X78863900Y-34909473D01*
X79027849Y-34799926D01*
X79210019Y-34724468D01*
X79374236Y-34691803D01*
X79403409Y-34686000D01*
X79600591Y-34686000D01*
X79629764Y-34691803D01*
G37*
G36*
X69469764Y-34691803D02*
G01*
X69633981Y-34724468D01*
X69816151Y-34799926D01*
X69980100Y-34909473D01*
X70119527Y-35048900D01*
X70229074Y-35212849D01*
X70304532Y-35395019D01*
X70343000Y-35588410D01*
X70343000Y-35785590D01*
X70304532Y-35978981D01*
X70229074Y-36161151D01*
X70119527Y-36325100D01*
X69980100Y-36464527D01*
X69816151Y-36574074D01*
X69633981Y-36649532D01*
X69440591Y-36688000D01*
X69243409Y-36688000D01*
X69050019Y-36649532D01*
X68867849Y-36574074D01*
X68703900Y-36464527D01*
X68564473Y-36325100D01*
X68454926Y-36161151D01*
X68379468Y-35978981D01*
X68341000Y-35785590D01*
X68341000Y-35588410D01*
X68379468Y-35395019D01*
X68454926Y-35212849D01*
X68564473Y-35048900D01*
X68703900Y-34909473D01*
X68867849Y-34799926D01*
X69050019Y-34724468D01*
X69214236Y-34691803D01*
X69243409Y-34686000D01*
X69440591Y-34686000D01*
X69469764Y-34691803D01*
G37*
G36*
X67079395Y-34772546D02*
G01*
X67252466Y-34844234D01*
X67252467Y-34844235D01*
X67408227Y-34948310D01*
X67540690Y-35080773D01*
X67540691Y-35080775D01*
X67644766Y-35236534D01*
X67716454Y-35409605D01*
X67753000Y-35593333D01*
X67753000Y-35780667D01*
X67716454Y-35964395D01*
X67644766Y-36137466D01*
X67628940Y-36161151D01*
X67540690Y-36293227D01*
X67408227Y-36425690D01*
X67350103Y-36464527D01*
X67252466Y-36529766D01*
X67079395Y-36601454D01*
X66895667Y-36638000D01*
X66708333Y-36638000D01*
X66524605Y-36601454D01*
X66351534Y-36529766D01*
X66253897Y-36464527D01*
X66195773Y-36425690D01*
X66063310Y-36293227D01*
X65975060Y-36161151D01*
X65959234Y-36137466D01*
X65887546Y-35964395D01*
X65851000Y-35780667D01*
X65851000Y-35593333D01*
X65887546Y-35409605D01*
X65959234Y-35236534D01*
X66063309Y-35080775D01*
X66063310Y-35080773D01*
X66195773Y-34948310D01*
X66351533Y-34844235D01*
X66351534Y-34844234D01*
X66524605Y-34772546D01*
X66708333Y-34736000D01*
X66895667Y-34736000D01*
X67079395Y-34772546D01*
G37*
G36*
X82319395Y-34772546D02*
G01*
X82492466Y-34844234D01*
X82492467Y-34844235D01*
X82648227Y-34948310D01*
X82780690Y-35080773D01*
X82780691Y-35080775D01*
X82884766Y-35236534D01*
X82956454Y-35409605D01*
X82993000Y-35593333D01*
X82993000Y-35780667D01*
X82956454Y-35964395D01*
X82884766Y-36137466D01*
X82868940Y-36161151D01*
X82780690Y-36293227D01*
X82648227Y-36425690D01*
X82590103Y-36464527D01*
X82492466Y-36529766D01*
X82319395Y-36601454D01*
X82135667Y-36638000D01*
X81948333Y-36638000D01*
X81764605Y-36601454D01*
X81591534Y-36529766D01*
X81493897Y-36464527D01*
X81435773Y-36425690D01*
X81303310Y-36293227D01*
X81215060Y-36161151D01*
X81199234Y-36137466D01*
X81127546Y-35964395D01*
X81091000Y-35780667D01*
X81091000Y-35593333D01*
X81127546Y-35409605D01*
X81199234Y-35236534D01*
X81303309Y-35080775D01*
X81303310Y-35080773D01*
X81435773Y-34948310D01*
X81591533Y-34844235D01*
X81591534Y-34844234D01*
X81764605Y-34772546D01*
X81948333Y-34736000D01*
X82135667Y-34736000D01*
X82319395Y-34772546D01*
G37*
G36*
X67079395Y-30962546D02*
G01*
X67252466Y-31034234D01*
X67252467Y-31034235D01*
X67408227Y-31138310D01*
X67540690Y-31270773D01*
X67540691Y-31270775D01*
X67644766Y-31426534D01*
X67716454Y-31599605D01*
X67753000Y-31783333D01*
X67753000Y-31970667D01*
X67716454Y-32154395D01*
X67644766Y-32327466D01*
X67644765Y-32327467D01*
X67540690Y-32483227D01*
X67408227Y-32615690D01*
X67329818Y-32668081D01*
X67252466Y-32719766D01*
X67079395Y-32791454D01*
X66895667Y-32828000D01*
X66708333Y-32828000D01*
X66524605Y-32791454D01*
X66351534Y-32719766D01*
X66274182Y-32668081D01*
X66195773Y-32615690D01*
X66063310Y-32483227D01*
X65959235Y-32327467D01*
X65959234Y-32327466D01*
X65887546Y-32154395D01*
X65851000Y-31970667D01*
X65851000Y-31783333D01*
X65887546Y-31599605D01*
X65959234Y-31426534D01*
X66063309Y-31270775D01*
X66063310Y-31270773D01*
X66195773Y-31138310D01*
X66351533Y-31034235D01*
X66351534Y-31034234D01*
X66524605Y-30962546D01*
X66708333Y-30926000D01*
X66895667Y-30926000D01*
X67079395Y-30962546D01*
G37*
G36*
X82319395Y-30962546D02*
G01*
X82492466Y-31034234D01*
X82492467Y-31034235D01*
X82648227Y-31138310D01*
X82780690Y-31270773D01*
X82780691Y-31270775D01*
X82884766Y-31426534D01*
X82956454Y-31599605D01*
X82993000Y-31783333D01*
X82993000Y-31970667D01*
X82956454Y-32154395D01*
X82884766Y-32327466D01*
X82884765Y-32327467D01*
X82780690Y-32483227D01*
X82648227Y-32615690D01*
X82569818Y-32668081D01*
X82492466Y-32719766D01*
X82319395Y-32791454D01*
X82135667Y-32828000D01*
X81948333Y-32828000D01*
X81764605Y-32791454D01*
X81591534Y-32719766D01*
X81514182Y-32668081D01*
X81435773Y-32615690D01*
X81303310Y-32483227D01*
X81199235Y-32327467D01*
X81199234Y-32327466D01*
X81127546Y-32154395D01*
X81091000Y-31970667D01*
X81091000Y-31783333D01*
X81127546Y-31599605D01*
X81199234Y-31426534D01*
X81303309Y-31270775D01*
X81303310Y-31270773D01*
X81435773Y-31138310D01*
X81591533Y-31034235D01*
X81591534Y-31034234D01*
X81764605Y-30962546D01*
X81948333Y-30926000D01*
X82135667Y-30926000D01*
X82319395Y-30962546D01*
G37*
G36*
X67079395Y-27152546D02*
G01*
X67252466Y-27224234D01*
X67252467Y-27224235D01*
X67408227Y-27328310D01*
X67540690Y-27460773D01*
X67540691Y-27460775D01*
X67644766Y-27616534D01*
X67716454Y-27789605D01*
X67753000Y-27973333D01*
X67753000Y-28160667D01*
X67716454Y-28344395D01*
X67644766Y-28517466D01*
X67644765Y-28517467D01*
X67540690Y-28673227D01*
X67408227Y-28805690D01*
X67329818Y-28858081D01*
X67252466Y-28909766D01*
X67079395Y-28981454D01*
X66895667Y-29018000D01*
X66708333Y-29018000D01*
X66524605Y-28981454D01*
X66351534Y-28909766D01*
X66274182Y-28858081D01*
X66195773Y-28805690D01*
X66063310Y-28673227D01*
X65959235Y-28517467D01*
X65959234Y-28517466D01*
X65887546Y-28344395D01*
X65851000Y-28160667D01*
X65851000Y-27973333D01*
X65887546Y-27789605D01*
X65959234Y-27616534D01*
X66063309Y-27460775D01*
X66063310Y-27460773D01*
X66195773Y-27328310D01*
X66351533Y-27224235D01*
X66351534Y-27224234D01*
X66524605Y-27152546D01*
X66708333Y-27116000D01*
X66895667Y-27116000D01*
X67079395Y-27152546D01*
G37*
G36*
X82319395Y-27152546D02*
G01*
X82492466Y-27224234D01*
X82492467Y-27224235D01*
X82648227Y-27328310D01*
X82780690Y-27460773D01*
X82780691Y-27460775D01*
X82884766Y-27616534D01*
X82956454Y-27789605D01*
X82993000Y-27973333D01*
X82993000Y-28160667D01*
X82956454Y-28344395D01*
X82884766Y-28517466D01*
X82884765Y-28517467D01*
X82780690Y-28673227D01*
X82648227Y-28805690D01*
X82569818Y-28858081D01*
X82492466Y-28909766D01*
X82319395Y-28981454D01*
X82135667Y-29018000D01*
X81948333Y-29018000D01*
X81764605Y-28981454D01*
X81591534Y-28909766D01*
X81514182Y-28858081D01*
X81435773Y-28805690D01*
X81303310Y-28673227D01*
X81199235Y-28517467D01*
X81199234Y-28517466D01*
X81127546Y-28344395D01*
X81091000Y-28160667D01*
X81091000Y-27973333D01*
X81127546Y-27789605D01*
X81199234Y-27616534D01*
X81303309Y-27460775D01*
X81303310Y-27460773D01*
X81435773Y-27328310D01*
X81591533Y-27224235D01*
X81591534Y-27224234D01*
X81764605Y-27152546D01*
X81948333Y-27116000D01*
X82135667Y-27116000D01*
X82319395Y-27152546D01*
G37*
G36*
X79144395Y-27152546D02*
G01*
X79317466Y-27224234D01*
X79317467Y-27224235D01*
X79473227Y-27328310D01*
X79605690Y-27460773D01*
X79605691Y-27460775D01*
X79709766Y-27616534D01*
X79781454Y-27789605D01*
X79818000Y-27973333D01*
X79818000Y-28160667D01*
X79781454Y-28344395D01*
X79709766Y-28517466D01*
X79709765Y-28517467D01*
X79605690Y-28673227D01*
X79473227Y-28805690D01*
X79394818Y-28858081D01*
X79317466Y-28909766D01*
X79144395Y-28981454D01*
X78960667Y-29018000D01*
X78773333Y-29018000D01*
X78589605Y-28981454D01*
X78416534Y-28909766D01*
X78339182Y-28858081D01*
X78260773Y-28805690D01*
X78128310Y-28673227D01*
X78024235Y-28517467D01*
X78024234Y-28517466D01*
X77952546Y-28344395D01*
X77916000Y-28160667D01*
X77916000Y-27973333D01*
X77952546Y-27789605D01*
X78024234Y-27616534D01*
X78128309Y-27460775D01*
X78128310Y-27460773D01*
X78260773Y-27328310D01*
X78416533Y-27224235D01*
X78416534Y-27224234D01*
X78589605Y-27152546D01*
X78773333Y-27116000D01*
X78960667Y-27116000D01*
X79144395Y-27152546D01*
G37*
M02*
